<?xml version="1.0" encoding="UTF-8"?>
<svg width="567px" height="567px" viewBox="0 0 567 567" version="1.1" xmlns="http://www.w3.org/2000/svg" xmlns:xlink="http://www.w3.org/1999/xlink">
    <!-- Generator: Sketch 41 (35326) - http://www.bohemiancoding.com/sketch -->
    <title>logo</title>
    <desc>Created with Sketch.</desc>
    <defs></defs>
    <g id="Page-1" stroke="none" stroke-width="1" fill="none" fill-rule="evenodd">
        <g id="logo">
            <g id="Page-1">
                <g id="logo">
                    <g id="Group">
                        <path d="M566.93,524.492 C566.93,547.93 547.93,566.93 524.492,566.93 L42.437,566.93 C19,566.93 0,547.93 0,524.492 L0,42.438 C0,19 19,0 42.437,0 L524.492,0 C547.93,0 566.93,19 566.93,42.438 L566.93,524.492 Z" id="Shape" fill="#9B27AF"></path>
                        <path d="M85.167,0 L71.566,0 C55.088,32.444 30.267,60.055 0,79.806 L0,94.2 C36.825,72.06 66.626,39.255 85.167,0 Z" id="Shape" fill="#000000" opacity="0.05"></path>
                        <path d="M111.408,0 L98.115,0 C77.833,45.758 43.224,83.641 0,107.844 L0,121.724 C50.007,95.589 89.518,52.555 111.408,0 Z" id="Shape" fill="#000000" opacity="0.05"></path>
                        <path d="M0,94.2 L0,107.844 C43.224,83.641 77.833,45.758 98.115,0 L85.167,0 C66.626,39.255 36.825,72.06 0,94.2 Z" id="Shape" fill="#000000" opacity="0.1"></path>
                        <path d="M205.116,0 L192.396,0 C163.621,95.565 92.422,171.516 0,206.06 L0,219.028 C98.605,183.56 175.544,101.937 205.116,0 Z" id="Shape" fill="#000000" opacity="0.05"></path>
                        <path d="M141.137,155.885 C183.698,112.249 214.247,58.582 230.007,0 L217.35,0 C187.051,108.471 105.156,195.193 0,231.53 L0,244.411 C53.144,226.762 101.542,196.479 141.137,155.885 Z" id="Shape" fill="#000000" opacity="0.05"></path>
                        <path d="M0,219.027 L0,231.53 C105.156,195.193 187.051,108.471 217.35,0 L205.116,0 C175.544,101.937 98.605,183.56 0,219.027 Z" id="Shape" fill="#000000" opacity="0.1"></path>
                        <path d="M321.08,0 L308.596,0 C274.315,157.369 153.892,283.616 0,324.926 L0,337.553 C160.868,295.765 286.289,164.74 321.08,0 Z" id="Shape" fill="#000000" opacity="0.05"></path>
                        <path d="M220.652,236.151 C284.732,170.743 327.725,89.336 345.555,0 L333.108,0 C297.908,171.268 167.453,307.445 0,349.729 L0,362.321 C83.647,341.851 159.502,298.566 220.652,236.151 Z" id="Shape" fill="#000000" opacity="0.05"></path>
                        <path d="M0,337.553 L0,349.729 C167.453,307.445 297.908,171.268 333.107,0 L321.08,0 C286.289,164.74 160.868,295.765 0,337.553 Z" id="Shape" fill="#000000" opacity="0.1"></path>
                        <path d="M435.643,0 L423.274,0 C385.641,221.722 218.485,396.046 0,441.505 L0,453.955 C223.166,408.416 397.729,227.524 435.643,0 Z" id="Shape" fill="#000000" opacity="0.05"></path>
                        <path d="M305.064,311.393 C347.074,267.588 381.847,217.752 408.414,163.272 C433.6,111.624 450.914,56.763 459.973,0 L447.614,0 C409.432,234.047 229.77,420.133 0,466.003 L0,478.447 C56.56,467.411 110.953,447.934 161.843,420.48 C214.917,391.848 263.104,355.146 305.064,311.393 Z" id="Shape" fill="#000000" opacity="0.05"></path>
                        <path d="M0,453.955 L0,466.003 C229.77,420.133 409.432,234.047 447.613,0 L435.642,0 C397.729,227.524 223.166,408.416 0,453.955 Z" id="Shape" fill="#000000" opacity="0.1"></path>
                        <path d="M548.561,7.49 C545.063,5.076 541.188,3.169 537.038,1.886 C497.32,278.085 284.74,502.346 12.629,554.69 C16.788,558.796 21.792,562.044 27.356,564.161 C297.266,506.896 507.129,284.955 548.561,7.49 Z" id="Shape" fill="#000000" opacity="0.05"></path>
                        <path d="M387.609,388.548 C438.248,335.4 479.986,274.933 511.66,208.827 C537.115,155.705 555.627,99.82 566.922,42.136 C566.858,32.982 563.893,24.521 558.904,17.617 C515.822,283.524 320.537,497.914 66.075,566.93 L108.113,566.93 C144.772,554.603 180.392,539.154 214.688,520.663 C278.868,486.063 337.047,441.613 387.609,388.548 Z" id="Shape" fill="#000000" opacity="0.05"></path>
                        <path d="M548.561,7.49 C507.129,284.955 297.266,506.896 27.355,564.161 C32.043,565.944 37.124,566.93 42.437,566.93 L66.075,566.93 C320.537,497.914 515.822,283.524 558.904,17.617 C556.059,13.68 552.561,10.25 548.561,7.49 Z" id="Shape" fill="#000000" opacity="0.1"></path>
                        <path d="M566.93,341.413 L566.93,318.138 C507.559,417.172 427.438,502.147 332.612,566.93 L353.917,566.93 C438.621,506.324 511.008,429.716 566.93,341.413 Z" id="Shape" fill="#000000" opacity="0.05"></path>
                        <path d="M566.93,294.742 L566.93,269.267 C501.977,392.325 406.311,494.527 288.555,566.929 L311.381,566.929 C416.75,498.36 504.668,404.875 566.93,294.742 Z" id="Shape" fill="#000000" opacity="0.05"></path>
                        <path d="M311.381,566.93 L332.611,566.93 C427.437,502.147 507.558,417.172 566.929,318.138 L566.929,294.742 C504.668,404.875 416.75,498.36 311.381,566.93 Z" id="Shape" fill="#000000" opacity="0.1"></path>
                        <path d="M566.93,509.019 C549.305,529.133 530.811,548.456 511.51,566.93 L524.492,566.93 C526.125,566.93 527.734,566.828 529.318,566.649 C542.189,553.973 554.701,540.908 566.81,527.506 C566.88,526.51 566.929,525.507 566.929,524.492 L566.929,509.019 L566.93,509.019 Z" id="Shape" fill="#000000" opacity="0.05"></path>
                        <path d="M476.283,566.93 L494.349,566.93 C519.98,543.065 544.216,517.701 566.929,490.983 L566.929,471.975 C539.137,505.762 508.744,537.585 476.283,566.93 Z" id="Shape" fill="#000000" opacity="0.05"></path>
                        <path d="M566.93,509.019 L566.93,490.983 C544.217,517.702 519.981,543.065 494.35,566.93 L511.51,566.93 C530.811,548.455 549.305,529.133 566.93,509.019 Z" id="Shape" fill="#000000" opacity="0.1"></path>
                    </g>
                    <text id="MQTT" fill="#FFFFFF" font-family="ArialRoundedMTBold, Arial Rounded MT Bold" font-size="150" font-weight="normal">
                        <tspan x="70.5302734" y="185.5">MQTT</tspan>
                    </text>
                    <text id="2WEB" fill="#FFFFFF" font-family="ArialRoundedMTBold, Arial Rounded MT Bold" font-size="150" font-weight="normal">
                        <tspan x="64.4145508" y="345.5">2WEB</tspan>
                    </text>
                    <text id="HOOK" fill="#FFFFFF" font-family="ArialRoundedMTBold, Arial Rounded MT Bold" font-size="150" font-weight="normal">
                        <tspan x="52" y="505.5">HOOK</tspan>
                    </text>
                </g>
            </g>
        </g>
    </g>
</svg>